<svg xmlns="http://www.w3.org/2000/svg" xmlns:xlink="http://www.w3.org/1999/xlink" width="223" height="70" viewBox="0 0 223 70">
  <defs>
    <clipPath id="clip-path">
      <rect id="Rectangle_3393" data-name="Rectangle 3393" width="223" height="70" transform="translate(-2432.147 -8248.52)" fill="none" stroke="#707070" stroke-width="1"/>
    </clipPath>
  </defs>
  <g id="le_figaro" data-name="le figaro" transform="translate(2432.147 8248.52)" clip-path="url(#clip-path)">
    <g id="Group_7911" data-name="Group 7911" transform="translate(-2411.143 -8226.063)">
      <g id="Group_7909" data-name="Group 7909" transform="translate(0 5.628)">
        <path id="Path_9484" data-name="Path 9484" d="M606.154,21.2c-8.548,0-11.654,5.283-11.654,9.53,0,5.628,4.274,9.928,11.574,9.928,6.5,0,11.6-3.265,11.6-9.689S612.79,21.2,606.154,21.2Zm.133,15.476c-1.964,0-4.062-1.035-4.062-6.291,0-3.239,1.407-5.256,3.823-5.256,2.283,0,3.955,1.327,3.955,5.6,0,4.672-1.725,5.946-3.716,5.946Z" transform="translate(-436.683 -21.2)" fill="#163860"/>
        <path id="Path_9485" data-name="Path 9485" d="M272.2,37.707v3.8h12.132v-3.8H282.42a.5.5,0,0,1-.5-.5V27.3a.5.5,0,0,1,.5-.5h1.938V23H272.227v3.8h1.938a.5.5,0,0,1,.5.5v9.9a.5.5,0,0,1-.5.5H272.2Z" transform="translate(-199.941 -22.522)" fill="#163860"/>
        <path id="Path_9486" data-name="Path 9486" d="M345.826,31.959V30.366H334.889v3.292h3.955s.08,3.584-4.221,3.584c-2.336,0-4.752-1.354-4.752-6.053s3.424-5.973,5.522-5.973a5.674,5.674,0,0,1,4.964,2.336h4.8v-5.6h-4.778v1.513a12.211,12.211,0,0,0-7.061-1.964c-6.451,0-11.123,3.584-11.123,9.716,0,5.654,4.194,9.583,12,9.583C345.826,40.8,345.826,31.959,345.826,31.959Z" transform="translate(-236.668 -21.42)" fill="#163860"/>
        <path id="Path_9487" data-name="Path 9487" d="M430.721,37.176,424.881,23h-7.937s-4.38,10.99-5.787,14.2a.846.846,0,0,1-.8.5H408.9v3.8h8.521v-3.8H416.28a.506.506,0,0,1-.478-.69l.531-1.248h6.955l.5,1.248c.133.319.08.69-.265.69H422.04v3.8h10.831v-3.8h-1.354A.869.869,0,0,1,430.721,37.176Zm-13.114-4.486,2.2-5.362,2.23,5.362Z" transform="translate(-300.353 -22.522)" fill="#163860"/>
        <path id="Path_9488" data-name="Path 9488" d="M523.763,37.335,521.321,33.8a4.755,4.755,0,0,0,3.716-4.646c0-3.876-3.106-6.159-8.654-6.159H502.5v3.8h1.938a.5.5,0,0,1,.5.5v9.9a.5.5,0,0,1-.5.5h-1.274v3.8h11.468v-3.8h-1.938a.5.5,0,0,1-.5-.5v-2.5h2.256l4.672,6.8h7.38v-3.8h-2.044A.834.834,0,0,1,523.763,37.335ZM515,31.415h-2.814V26.8H515s3.4-.08,3.4,2.256C518.4,29.053,518.64,31.415,515,31.415Z" transform="translate(-369.106 -22.522)" fill="#163860"/>
        <path id="Path_9489" data-name="Path 9489" d="M0,41.5V37.68H1.938a.5.5,0,0,0,.5-.5V27.3a.5.5,0,0,0-.5-.5H0V23H12.132v3.8H10.194a.5.5,0,0,0-.5.5V37.68l4.752.027a.488.488,0,0,0,.5-.5V33.831H19.7V41.5Z" transform="translate(0 -22.522)" fill="#163860"/>
        <path id="Path_9490" data-name="Path 9490" d="M100.724,27.991V23H81v3.8h1.938a.5.5,0,0,1,.5.5v9.875a.5.5,0,0,1-.5.5H81V41.5h19.724V36.485H96.689V37.2a.5.5,0,0,1-.5.5l-5.468-.027V33.91h5.973V30.433H90.716V26.8l5.468-.027a.488.488,0,0,1,.5.5v.717Z" transform="translate(-59.498 -22.522)" fill="#163860"/>
        <path id="Path_9491" data-name="Path 9491" d="M192.2,23c.186.133.372.292.584.425,4.725,3.5,4.778,5.973,4.778,5.973h0v4.884a18.626,18.626,0,0,1-3.424-1.46V37.2a.5.5,0,0,1-.5.5H191.7v3.8h12.025v-3.8h-1.832a.5.5,0,0,1-.5-.5V33.937h5.23V30.459h-5.256V26.8l4.752-.027a.488.488,0,0,1,.5.5v.717h4.752V23H192.2Z" transform="translate(-140.811 -22.522)" fill="#163860"/>
      </g>
      <g id="Group_7910" data-name="Group 7910" transform="translate(45.368)">
        <path id="Path_9492" data-name="Path 9492" d="M228.227,65.719a10.152,10.152,0,0,1,2.894,1.513,35.828,35.828,0,0,1,3.929,3.9l.876.557s-2.469-2.947-4.035-4.513c-1.115-1.088-2.973-2.973-2.973-2.973l-.106-.106H228.2v1.619h.027Z" transform="translate(-212.99 -47.084)" fill="#0d6fef"/>
        <path id="Path_9493" data-name="Path 9493" d="M177.777,6.53c-.212-.159-.4-.292-.584-.425-4.274-3.239-5.681-4.964-6.052-6.106a9.408,9.408,0,0,0,2.177,8.415,11.962,11.962,0,0,1-1.646-.5,11.516,11.516,0,0,0,5.389,5.5,15.453,15.453,0,0,1-1.911-.08,10.312,10.312,0,0,0,3.716,2.867,22.228,22.228,0,0,0,3.69,1.46V12.5h0S182.5,10.034,177.777,6.53Z" transform="translate(-170.903)" fill="#0d6fef"/>
      </g>
    </g>
  </g>
</svg>
