<svg xmlns="http://www.w3.org/2000/svg" xmlns:xlink="http://www.w3.org/1999/xlink" width="169" height="70" viewBox="0 0 169 70">
  <defs>
    <clipPath id="clip-path">
      <rect id="Rectangle_3395" data-name="Rectangle 3395" width="169" height="70" transform="translate(-6960.43 -8243.505)" fill="none" stroke="#707070" stroke-width="1"/>
    </clipPath>
  </defs>
  <g id="Le_soir" data-name="Le soir" transform="translate(6960.43 8243.505)" clip-path="url(#clip-path)">
    <g id="Group_7914" data-name="Group 7914" transform="translate(46.157 213.645)">
      <path id="rect2856" d="M0,257.355H126.857v26.216H0Z" transform="translate(-6985.516 -8693)" fill="#004178"/>
      <path id="path2858" d="M525.433,287.863A1.674,1.674,0,0,0,527,289.426h1.365v1.886H518.188v-1.886h2.06a1.681,1.681,0,0,0,1.57-1.563v-12.1a1.7,1.7,0,0,0-1.569-1.564h-2.062v-1.835h10.173V274.2H527a1.652,1.652,0,0,0-1.563,1.575v12.088" transform="translate(-7415.587 -8704.616)" fill="#fff"/>
      <path id="path2860" d="M449.159,289.575a8.358,8.358,0,0,1-6.453-2.568,10.39,10.39,0,0,1-2.619-7.468,10.282,10.282,0,0,1,2.6-7.22,9.942,9.942,0,0,1,12.94,0,10.272,10.272,0,0,1,2.6,7.22,10.386,10.386,0,0,1-2.617,7.468,8.359,8.359,0,0,1-6.453,2.568m0-1.77c2.6-.006,4.379-1.589,5.106-4.6a14.952,14.952,0,0,0,0-6.912c-.6-2.641-2.292-4.764-5.106-4.757s-4.506,2.116-5.108,4.757a14.967,14.967,0,0,0,0,6.912c.714,3.015,2.5,4.6,5.108,4.6" transform="translate(-7355.144 -8702.729)" fill="#fff"/>
      <path id="path2862" d="M382.229,271.132v5.778h-1.677a4.774,4.774,0,0,0-1.473-3.758,5.615,5.615,0,0,0-5.615-1.064,3.466,3.466,0,0,0-1.975,1.816,2.276,2.276,0,0,0,.58,2.286,5.831,5.831,0,0,0,2.3,1.111c2.493.752,5.145,1.127,7.244,2.834a4.782,4.782,0,0,1,1.285,4.792c-.423,2.332-2.6,3.514-4.358,4.082a14.919,14.919,0,0,1-10.381-.935v-6.091h1.913a5.463,5.463,0,0,0,2.274,4.87,6.489,6.489,0,0,0,6.131.156,2.579,2.579,0,0,0,1.286-2.1,2.673,2.673,0,0,0-1.614-2.4c-3.435-1.629-8.265-1.41-9.85-5.747a4.977,4.977,0,0,1,2.2-5.245c2.783-2.023,6.632-2.191,11.728-.391" transform="translate(-7299.481 -8702.698)" fill="#fff"/>
      <path id="path2864" d="M255.38,279.242v-1.816c0-2.466-1.124-3.217-3.277-3.226h-2.809a1.586,1.586,0,0,0-1.568,1.571v4.56h2.985c.829-.006,1.437-.522,1.445-2.121v-.846h1.617v8.3h-1.617l0-.747c-.006-1.5-.534-2.325-1.447-2.329h-2.985v5.27a1.767,1.767,0,0,0,1.564,1.563h3.22a3.118,3.118,0,0,0,3.312-3.306v-2.187h1.933v7.379H241.2v-1.886h1.315a1.581,1.581,0,0,0,1.571-1.563V275.776a1.491,1.491,0,0,0-1.566-1.577h-2.158v-1.835h17.053v6.877H255.38" transform="translate(-7200.575 -8704.615)" fill="#fff"/>
      <path id="path2866" d="M587.213,289.417v1.895h-5.387a1.034,1.034,0,0,1-.846-.7c-.738-2.709-.674-5.512-2.619-7.735a2.451,2.451,0,0,0-1.583-.611h-2.7v5.6a1.711,1.711,0,0,0,1.568,1.564h1.247v1.886h-8.878v-1.886h.874a1.683,1.683,0,0,0,1.575-1.564v-12.1a1.706,1.706,0,0,0-1.575-1.564h-.874v-1.835h9.638c2.414,0,4.777.01,6.4,2.542a4.163,4.163,0,0,1,.079,3.866c-1.13,1.926-3.309,2.521-5.332,2.912,1.553.234,3.23.658,4.045,2.192.768,1.487.7,2.651,1.528,4.577a1.852,1.852,0,0,0,1.7.964h1.138M575.644,274.2a1.653,1.653,0,0,0-1.564,1.564V280.3h3.287a3.609,3.609,0,0,0,3.33-1.84,3,3,0,0,0-.423-3.21,3.406,3.406,0,0,0-2.96-1.05h-1.67" transform="translate(-7454.152 -8704.616)" fill="#fff"/>
      <path id="path2868" d="M181.531,283.008h1.976v8.3H167.535v-1.886h1.753a1.519,1.519,0,0,0,1.571-1.563V275.768a1.5,1.5,0,0,0-1.576-1.568h-1.749v-1.835h10.726V274.2h-2.212a1.489,1.489,0,0,0-1.568,1.568v12.094c0,.838.666,1.56,1.885,1.563h1.248c3.111,0,3.917-2,3.917-4.012v-2.406" transform="translate(-7144.21 -8704.616)" fill="#fff"/>
    </g>
  </g>
</svg>
