<svg xmlns="http://www.w3.org/2000/svg" xmlns:xlink="http://www.w3.org/1999/xlink" width="181" height="70" viewBox="0 0 181 70">
  <defs>
    <clipPath id="clip-path">
      <rect id="Rectangle_3398" data-name="Rectangle 3398" width="181" height="70" transform="translate(-6951.898 -7790.848)" fill="none" stroke="#707070" stroke-width="1"/>
    </clipPath>
  </defs>
  <g id="Marie_claire" data-name="Marie claire" transform="translate(6951.898 7790.848)" clip-path="url(#clip-path)">
    <g id="lgx5ohlzpv1625211277" transform="translate(-6930.592 -7768.391)">
      <g id="Group_7913" data-name="Group 7913" transform="translate(0 0)">
        <path id="Fill-1" d="M288,41.9V56.849l5.426,0L293.414,39,288,41.9" transform="translate(-238.089 -32.241)"/>
        <path id="Fill-2" d="M291.073,2.973a3.27,3.27,0,0,0-1.187-1.528,3.315,3.315,0,0,0-3.958.479,3.242,3.242,0,0,0-.878,2.872,3.014,3.014,0,0,0,1.667,2.136,3.424,3.424,0,0,0,3.906-.922,3.443,3.443,0,0,0,.451-3.039v0" transform="translate(-235.608 -0.827)"/>
        <path id="Fill-3" d="M22.9,42.73A3.262,3.262,0,0,0,20.6,40.4a5.3,5.3,0,0,0-6.076,2.544l-.123.205-.087-.222a3.755,3.755,0,0,0-3.072-2.686c-2.305-.358-4.085.52-5.781,2.848l-.212.293V40L0,42.671V57.7H5.246l.011-11.248A1.738,1.738,0,0,1,7,44.826a1.766,1.766,0,0,1,1.639,1.621s0,11.031,0,11.236h5.474c0-.2-.01-11.236-.01-11.236a1.806,1.806,0,0,1,1.842-1.621,1.744,1.744,0,0,1,1.6,1.621V57.679h5.5l-.009-13.013A9.138,9.138,0,0,0,22.9,42.73" transform="translate(0 -33.068)"/>
        <path id="Fill-4" d="M150.658,56.4c-.47-.045-.6-1.041-.6-1.041s-1-5.933-1-5.933-.236-1.151-.236-1.151a20.628,20.628,0,0,0-.965-3.681c-1.534-3.556-5.935-4.141-9.177-3.18a6.279,6.279,0,0,0-1.012.424v2.2a4.423,4.423,0,0,1,3.686-.114,3.871,3.871,0,0,1,1.826,3.048c0,.012.12.781.12.781a11.894,11.894,0,0,0-4.994,1.65,5.352,5.352,0,0,0-2.282,4.913,4.919,4.919,0,0,0,3.167,4.245c2.029.717,4.814.6,6.471-1.305.01-.01.2-.225.2-.225l.469.457c1.208,1.267,2.532,1.227,4.066,1.182l.814-.016V56.482s-.542-.078-.557-.084ZM143.7,50.371l.991,4.8c-2.552,2.943-6.756-2.222-.991-4.8Z" transform="translate(-112.431 -33.895)"/>
        <path id="Fill-5" d="M236.267,39.017c-2.393,0-3.7,2.775-3.712,2.806l-.227.533v-.34l0-3.016L227,41.9l0,14.991,5.345,0V47.294l.021-.358a5.484,5.484,0,0,1,.463-2.3c.8-1.546,2.652-1.513,3.948-1.345l.939-4.028a4.125,4.125,0,0,0-1.453-.25" transform="translate(-187.66 -32.241)"/>
        <path id="Fill-6" d="M669.72,39.267a4.129,4.129,0,0,0-1.453-.25c-2.393,0-3.7,2.775-3.712,2.806l-.227.533v-.341l0-3.016L659,41.9l.005,14.991,5.344,0V47.294l.021-.358a5.491,5.491,0,0,1,.463-2.3c.8-1.545,2.652-1.513,3.948-1.345l.939-4.028" transform="translate(-544.793 -32.241)"/>
        <path id="Fill-7" d="M627.073,1.973A3.269,3.269,0,0,0,625.885.444a3.315,3.315,0,0,0-3.958.479,3.244,3.244,0,0,0-.878,2.872,3.015,3.015,0,0,0,1.667,2.136,3.424,3.424,0,0,0,3.906-.922,3.442,3.442,0,0,0,.451-3.039v0" transform="translate(-513.378 0)"/>
        <path id="Fill-8" d="M720.916,56.258c-2.117-.156-3.121-4.069-3.121-4.069l9.2-2.972s-.174-4.019-2.393-6.2A7.283,7.283,0,0,0,716.65,41.6a7.493,7.493,0,0,0-3.971,4.469,10.466,10.466,0,0,0,2.094,10.916c2.461,2.356,6.289,2.312,9.052,1.484-.011,0,1.392-.6,1.392-.6l0-2.49a7.51,7.51,0,0,1-4.3.882Zm-3.247-6.575a9.738,9.738,0,0,1,.469-4.319,1.842,1.842,0,0,1,1.448-1.234c2.439-.3,2.709,4.178,2.709,4.178l-4.626,1.386s0-.013,0-.011Z" transform="translate(-588.608 -33.895)"/>
        <path id="Fill-9" d="M624,41.9V56.849l5.425,0L629.414,39,624,41.9" transform="translate(-515.859 -32.241)"/>
        <path id="Fill-10" d="M335.6,43.017a7.282,7.282,0,0,0-7.95-1.421,7.492,7.492,0,0,0-3.971,4.468,10.466,10.466,0,0,0,2.094,10.917c2.46,2.357,6.289,2.312,9.052,1.484-.01,0,1.393-.6,1.393-.6l0-2.489a7.5,7.5,0,0,1-4.3.882c-2.117-.155-3.122-4.068-3.122-4.068l9.2-2.972s-.173-4.019-2.393-6.2Zm-6.932,6.677s0-.013,0-.01a9.747,9.747,0,0,1,.469-4.32,1.841,1.841,0,0,1,1.448-1.234c2.44-.3,2.71,4.178,2.71,4.178l-4.626,1.386Z" transform="translate(-267.023 -33.895)"/>
        <path id="Fill-11" d="M437.1,54.84c-1.423-.74-2.613-1.826-2.765-4.944-.177-3.631.545-6.183,2.484-6.922,1.471-.561,3.491.677,3.491.677l.02-2.935a8.649,8.649,0,0,0-5.878-.35c-2.807.9-4.616,3.084-5.257,6.662a11.78,11.78,0,0,0,1.194,7.747,7.347,7.347,0,0,0,7.52,3.287,24.708,24.708,0,0,0,2.7-.68l-.025-2.712s-2.014.934-3.481.17" transform="translate(-354.653 -33.068)"/>
        <path id="Fill-12" d="M547.658,55.4c-.47-.045-.6-1.041-.6-1.041s-1-5.932-1-5.932-.236-1.151-.236-1.151a20.676,20.676,0,0,0-.965-3.682c-1.534-3.556-5.935-4.14-9.177-3.18a6.279,6.279,0,0,0-1.013.425v2.2a4.424,4.424,0,0,1,3.686-.114,3.87,3.87,0,0,1,1.826,3.048c0,.012.12.781.12.781a11.876,11.876,0,0,0-4.995,1.65,5.351,5.351,0,0,0-2.282,4.913,4.918,4.918,0,0,0,3.167,4.245c2.029.717,4.814.6,6.471-1.305l.2-.225.469.456c1.208,1.267,2.532,1.228,4.066,1.182l.814-.017V55.482s-.543-.077-.557-.083ZM540.7,49.371l.991,4.8c-2.552,2.943-6.756-2.222-.991-4.8Z" transform="translate(-440.629 -33.068)"/>
        <path id="Fill-13" d="M499,31.188h5.332V8L499,10.855V31.188" transform="translate(-412.521 -6.614)"/>
      </g>
    </g>
  </g>
</svg>
