<svg xmlns="http://www.w3.org/2000/svg" xmlns:xlink="http://www.w3.org/1999/xlink" width="133" height="70" viewBox="0 0 133 70">
  <defs>
    <clipPath id="clip-path">
      <rect id="Rectangle_3400" data-name="Rectangle 3400" width="133" height="70" transform="translate(-6431.396 -8243.505)" fill="none" stroke="#707070" stroke-width="1"/>
    </clipPath>
  </defs>
  <g id="Trends" transform="translate(6431.396 8243.505)" clip-path="url(#clip-path)">
    <g id="TE" transform="translate(-6410.023 -8224.281)">
      <path id="Path_9541" data-name="Path 9541" d="M146,18.237c.307.141.911.394.893.972a.527.527,0,0,1-.616.532c-.353-.029-1.191-.5-1.537-1.99l-.119,0v1.592s0,.032.11.133a2.253,2.253,0,0,0,1.546.516,1.64,1.64,0,0,0,1.6-1.747,1.934,1.934,0,0,0-1.455-1.728c-.627-.252-.928-.588-.92-.915.01-.407.423-.445.559-.448.2,0,1.074.1,1.413,1.476h.124l-.121-1.379a2.607,2.607,0,0,0-1.273-.336,1.541,1.541,0,0,0-1.619,1.523A1.846,1.846,0,0,0,146,18.237Z" transform="translate(-79.335 -8.183)"/>
      <path id="Path_9542" data-name="Path 9542" d="M93.153,11.165c.7-.036.767.8.76,1.131v1.71c0,.5.027,1.114-.466,1.222-.841.185-1.108-1.119-1.108-2.123S92.435,11.2,93.153,11.165Zm4.563,3.156a1.458,1.458,0,0,1,1.105-1.207v1.035c0,.335.1.987-.533,1.014S97.7,14.383,97.716,14.321Zm-5.169,1.559a1.7,1.7,0,0,0,1.38-.665l0,.735.048.057a7.528,7.528,0,0,1,2.3-.543c.5.957,2.207.26,2.7-.253.034.1.4.685.835.673a1.816,1.816,0,0,0,1.309-.634l-.065-.1c-.38.226-.548-.117-.548-.343V12.448a1.4,1.4,0,0,0-1.441-1.655,3.557,3.557,0,0,0-1.723.28,1.76,1.76,0,0,0-1.015,1.077c-.151.517,0,1.095.617,1.1.685,0,.846-.842.773-1.315-.068-.441.132-.911.571-.921s.533.32.533.669v1.114c-.541.082-2.832.968-2.672,2.244a1.388,1.388,0,0,0,.054.25h-.181a.423.423,0,0,1-.408-.437l.006-7.016-.052-.053a7.257,7.257,0,0,1-2.214.7v.093a.919.919,0,0,1,.57.867l-.006,1.539a2.83,2.83,0,0,0-1.972.268,2.3,2.3,0,0,0-1.18,2.151C90.768,15.3,91.761,15.873,92.547,15.879Z" transform="translate(-49.807 -4.269)"/>
      <path id="Path_9543" data-name="Path 9543" d="M71.744,14.8c.707-.019.727,1.234.7,1.75H71C71,15.845,71.1,14.814,71.744,14.8Zm-.022,4.859a2.221,2.221,0,0,0,2.037-1.608l-.108-.058a1.157,1.157,0,0,1-1.176.591c-.862,0-1.425-.939-1.459-1.789l2.76,0a2.2,2.2,0,0,0-2.054-2.2,2.38,2.38,0,0,0-2.188,2.534A2.38,2.38,0,0,0,71.723,19.655Z" transform="translate(-38.156 -8.005)"/>
      <path id="Path_9544" data-name="Path 9544" d="M127.318,19.692a2.221,2.221,0,0,0,2.037-1.608l-.108-.053a1.237,1.237,0,0,1-1.216.61,1.743,1.743,0,0,1-1.514-1.9c.017-1.7.715-1.855.964-1.864a.5.5,0,0,1,.465.263c.12.231.109.378.012.986a.694.694,0,0,0,.723.88.769.769,0,0,0,.66-.9,1.446,1.446,0,0,0-.524-1.1,2.108,2.108,0,0,0-1.454-.416,2.451,2.451,0,0,0-2.234,2.571A2.38,2.38,0,0,0,127.318,19.692Z" transform="translate(-68.662 -8.005)"/>
      <path id="Path_9545" data-name="Path 9545" d="M136.9,14.8c.707-.019.727,1.234.7,1.75h-1.443C136.156,15.845,136.257,14.814,136.9,14.8Zm-.022,4.859a2.222,2.222,0,0,0,2.037-1.608l-.109-.058a1.155,1.155,0,0,1-1.176.591c-.862,0-1.425-.939-1.459-1.789l2.759,0a2.2,2.2,0,0,0-2.054-2.2,2.38,2.38,0,0,0-2.188,2.534A2.38,2.38,0,0,0,136.881,19.655Z" transform="translate(-73.91 -8.005)"/>
      <path id="Path_9546" data-name="Path 9546" d="M79.183,16.246l0,2.651a.423.423,0,0,1-.408.437h-.085v.187h2.7v-.187H81.3a.423.423,0,0,1-.408-.437V16.183c0-.206-.073-.767.542-.826h.129c.608,0,.54.619.543.826V18.9h0a.423.423,0,0,1-.408.437H81.61v.187h2.659v-.187h-.085a.423.423,0,0,1-.408-.437l0-2.125v-.484c0-1.176-.629-1.661-1.376-1.664a2.163,2.163,0,0,0-1.493.635c0,.007-.019,0-.019,0v-.622l-.052-.053a7.3,7.3,0,0,1-2.221.7v.093A.919.919,0,0,1,79.183,16.246Z" transform="translate(-43.136 -8.005)"/>
      <path id="Path_9547" data-name="Path 9547" d="M113.707,16.246l0,2.651a.423.423,0,0,1-.408.437h-.084v.187h2.7v-.187h-.085a.423.423,0,0,1-.408-.437V16.183c0-.206-.073-.767.542-.826h.13c.608,0,.539.619.542.826V18.9h0a.423.423,0,0,1-.408.437h-.085v.187h2.659v-.187h-.085a.422.422,0,0,1-.408-.437l0-2.609c0-1.176-.629-1.661-1.376-1.664a2.165,2.165,0,0,0-1.493.635c0,.007-.019,0-.019,0v-.622l-.051-.053a7.3,7.3,0,0,1-2.221.7v.093A.919.919,0,0,1,113.707,16.246Z" transform="translate(-62.081 -8.005)"/>
      <path id="Path_9548" data-name="Path 9548" d="M63.466,16.338a1.376,1.376,0,0,0,1.35,1.5A1.56,1.56,0,0,0,66.492,17l-.093-.067a.734.734,0,0,1-.847.34c-.21-.078-.36-.27-.36-.711,0-1.2,0-3.344,0-3.344h1.056v-.451H65.2v-1.4l-.04-.022a8.979,8.979,0,0,1-1.952,1.783v.094h.252Z" transform="translate(-34.687 -6.226)"/>
      <path id="Path_9549" data-name="Path 9549" d="M144.98,31.807c-2.9.615-3.818-3.706-3.818-7.034s.328-6.307,2.8-6.428c2.431-.119,2.645,2.665,2.621,3.747v5.666C146.586,29.407,146.678,31.448,144.98,31.807Zm14.436-8.843c-2.162-.833-3.2-1.949-3.172-3.03.034-1.347,1.459-1.475,1.925-1.484.7-.013,3.7.347,4.874,4.89h.425l-.417-4.568a9.257,9.257,0,0,0-4.386-1.114c-1.457,0-5.547.778-5.58,5.046-.032,4.247,3.272,5.259,4.886,5.972,1.06.468,3.141,1.3,3.078,3.22a1.8,1.8,0,0,1-2.122,1.761c-1.217-.1-4.107-1.669-5.3-6.595l-.412-.01V32a1.427,1.427,0,0,1-1.334-1.442l.013-9.144.008-12.041V7.308l-.178-.176a25.734,25.734,0,0,1-7.634,2.312l0,.309a3.048,3.048,0,0,1,1.965,2.873l-.019,5.1a10.113,10.113,0,0,0-6.8.886,7.567,7.567,0,0,0-4.066,7.126c0,6.318,3.423,8.208,6.134,8.23a5.956,5.956,0,0,0,4.756-2.2l.006,2.435.167.188a25.609,25.609,0,0,1,7.252-1.716,7.837,7.837,0,0,0,5.433,1.806,5.518,5.518,0,0,0,5.5-5.789C164.429,25.632,161.982,23.953,159.416,22.964Z" transform="translate(-74.176 -3.913)"/>
      <path id="Path_9550" data-name="Path 9550" d="M36.665,14.022c2.437-.064,2.505,4.089,2.418,5.8H34.109C34.089,17.5,34.439,14.08,36.665,14.022ZM43.236,24.6c-.35.54-1.081,1.958-4.053,1.958s-4.913-3.111-5.029-5.929l9.513-.009c-.343-4.079-3.253-7.288-7.081-7.288a7.285,7.285,0,0,0-5.943,3.229,4.291,4.291,0,0,0,.018-.508,2.355,2.355,0,0,0-2.186-2.5,4.3,4.3,0,0,0-3.558,2.694c.006.023-.125.014-.125.014V13.488l-.179-.176a25.881,25.881,0,0,1-7.658,2.312l0,.309a3.048,3.048,0,0,1,1.965,2.872v7.522c0,.712-.106,2.184-1.349,2.591-1.357-.427-1.421-2.027-1.412-2.726l0-24.43C17.721,1.639,21.788,2.4,24.8,8.8h.431L23.6,0H1.63L0,8.8H.431C3.448,2.4,7.513,1.639,9.075,1.762L9.086,26.32a2.667,2.667,0,0,1-2.629,2.7L6.1,29.03v.626H26.508l0-.621h-.293a1.426,1.426,0,0,1-1.406-1.446V19.873c-.016-.9.082-2.361,1.132-2.413.742-.037,1.137.682,1.355.952a1.622,1.622,0,0,0,1.378.727,1.7,1.7,0,0,0,.834-.316,9.222,9.222,0,0,0-.463,2.9c0,4.636,3.377,8.394,7.543,8.394a7.609,7.609,0,0,0,7.024-5.328Z"/>
      <path id="Path_9551" data-name="Path 9551" d="M113.543,45.222a1.426,1.426,0,0,1-1.406-1.446l-.007-7.04v-1.6c0-3.9-2.17-5.5-4.745-5.514a7.6,7.6,0,0,0-5.148,2.1c0,.023-.066.014-.066.014v-2.06l-.179-.176a25.874,25.874,0,0,1-7.658,2.312l0,.309A3.048,3.048,0,0,1,96.3,34.993L96.3,43.776a1.426,1.426,0,0,1-1.406,1.446H94.6l0,.621h9.292v-.621h-.292a1.426,1.426,0,0,1-1.406-1.446v-8.99c.011-.683-.25-2.54,1.871-2.736l.445,0c2.1-.012,1.86,2.052,1.871,2.736v8.99l0,0a1.426,1.426,0,0,1-1.406,1.446h-.292v.621h9.167l0-.621Z" transform="translate(-51.763 -16.187)"/>
    </g>
  </g>
</svg>
